<svg width="679" height="675" viewBox="0 0 679 675" fill="none" xmlns="http://www.w3.org/2000/svg">
<g filter="url(#filter0_dd)">
<path d="M474.924 152.995H472.654V39.0346C472.654 28.6938 468.546 18.7766 461.234 11.4646C453.922 4.15266 444.005 0.0448303 433.664 0.0448303H179.874C169.533 0.0448303 159.616 4.15266 152.304 11.4646C144.992 18.7766 140.884 28.6938 140.884 39.0346V88.9648H140.024C139.417 88.9648 138.834 89.206 138.405 89.6355C137.975 90.065 137.734 90.6474 137.734 91.2547V113.585C137.734 114.192 137.975 114.775 138.405 115.204C138.834 115.634 139.417 115.875 140.024 115.875H140.884V138.225H139.824C139.523 138.225 139.225 138.284 138.948 138.399C138.67 138.514 138.417 138.683 138.205 138.896C137.992 139.108 137.823 139.361 137.708 139.639C137.593 139.916 137.534 140.214 137.534 140.515V182.775C137.534 183.382 137.775 183.964 138.205 184.394C138.634 184.823 139.217 185.065 139.824 185.065H140.884V201.455H139.924C139.623 201.455 139.325 201.514 139.048 201.629C138.77 201.744 138.517 201.913 138.305 202.125C138.092 202.338 137.923 202.59 137.808 202.868C137.693 203.146 137.634 203.444 137.634 203.744V246.405C137.634 247.012 137.875 247.595 138.305 248.024C138.734 248.453 139.317 248.695 139.924 248.695H140.884V635.325C140.884 645.665 144.992 655.583 152.304 662.895C159.616 670.207 169.533 674.315 179.874 674.315H433.664C444.005 674.315 453.922 670.207 461.234 662.895C468.546 655.583 472.654 645.665 472.654 635.325V234.725H474.924C475.531 234.725 476.114 234.484 476.543 234.054C476.973 233.625 477.214 233.042 477.214 232.435V155.285C477.214 154.677 476.973 154.095 476.543 153.665C476.114 153.236 475.531 152.995 474.924 152.995Z" fill="#3F3D56"/>
<path d="M317.224 30.0844H278.634C277.475 30.0832 276.365 29.6226 275.545 28.8035C274.726 27.9844 274.265 26.8738 274.264 25.7153V24.0444C274.265 22.8859 274.726 21.7753 275.545 20.9562C276.365 20.1371 277.475 19.6764 278.634 19.6752H317.224C318.382 19.6764 319.493 20.1371 320.312 20.9562C321.131 21.7753 321.592 22.8859 321.594 24.0444V25.7153C321.592 26.8738 321.132 27.9844 320.312 28.8035C319.493 29.6226 318.382 30.0832 317.224 30.0844V30.0844Z" fill="white"/>
<path d="M333.434 30.2249C336.383 30.2249 338.774 27.834 338.774 24.8848C338.774 21.9356 336.383 19.5448 333.434 19.5448C330.485 19.5448 328.094 21.9356 328.094 24.8848C328.094 27.834 330.485 30.2249 333.434 30.2249Z" fill="white"/>
<path d="M425.44 16H387.44V20.57C387.44 26.3252 385.154 31.8447 381.084 35.9142C377.015 39.9838 371.495 42.27 365.74 42.27H244.68C241.832 42.2713 239.011 41.7116 236.379 40.6228C233.747 39.534 231.355 37.9374 229.34 35.9242C227.325 33.911 225.726 31.5207 224.635 28.8896C223.544 26.2586 222.981 23.4384 222.98 20.59V16H187.35C180.362 16 173.659 18.7761 168.718 23.7177C163.776 28.6593 161 35.3615 161 42.35V628.79C161 635.778 163.776 642.481 168.718 647.422C173.659 652.364 180.362 655.14 187.35 655.14H425.44C432.426 655.14 439.126 652.365 444.065 647.425C449.005 642.486 451.78 635.786 451.78 628.8V42.35C451.781 38.891 451.101 35.4656 449.779 32.2693C448.456 29.0731 446.517 26.1687 444.072 23.7219C441.627 21.2751 438.724 19.3338 435.529 18.0088C432.334 16.6839 428.909 16.0013 425.45 16H425.44Z" fill="url(#paint0_linear)"/>
<path d="M422.94 281.297H183.968C181.856 281.295 179.83 280.455 178.337 278.961C176.843 277.467 176.002 275.442 176 273.33V95.9678C176.002 93.8553 176.843 91.83 178.337 90.3363C179.83 88.8425 181.856 88.0023 183.968 88H422.94C425.052 88.0024 427.078 88.8426 428.571 90.3363C430.065 91.83 430.905 93.8553 430.908 95.9678V273.33C430.905 275.442 430.065 277.467 428.571 278.961C427.078 280.455 425.052 281.295 422.94 281.297V281.297Z" fill="url(#paint1_linear)"/>
<g opacity="0.1">
<path opacity="0.1" d="M468.578 231.215C468.578 229.842 468.578 228.462 468.578 227.075C468.523 228.144 468.523 229.216 468.578 230.285C468.568 230.595 468.578 230.905 468.578 231.215Z" fill="black"/>
</g>
<path d="M508.442 309.849C522.933 309.849 534.681 298.102 534.681 283.61C534.681 269.119 522.933 257.372 508.442 257.372C493.95 257.372 482.203 269.119 482.203 283.61C482.203 298.102 493.95 309.849 508.442 309.849Z" fill="#FFB8B8"/>
<path d="M576.685 496.376C577.709 495.439 578.515 494.288 579.046 493.005C579.577 491.722 579.82 490.338 579.759 488.951C579.697 487.564 579.332 486.207 578.69 484.977C578.047 483.746 577.143 482.671 576.04 481.827L572.462 450.047L552.537 455.486L562.238 484.09C560.944 486.036 560.409 488.39 560.735 490.705C561.06 493.02 562.223 495.135 564.004 496.65C565.785 498.164 568.059 498.973 570.396 498.922C572.733 498.872 574.971 497.966 576.685 496.376V496.376Z" fill="#FFB8B8"/>
<path d="M591.242 657.281L602.24 650.168L580.036 604.365L563.805 614.864L591.242 657.281Z" fill="#FFB8B8"/>
<path d="M630.054 646.661L595.491 669.017L586.854 655.664L608.562 641.622C610.25 640.53 612.136 639.782 614.114 639.419C616.091 639.056 618.121 639.086 620.087 639.508C622.052 639.929 623.916 640.734 625.57 641.876C627.225 643.017 628.639 644.474 629.731 646.162L630.054 646.661V646.661Z" fill="#2F2E41"/>
<path d="M493.851 661.936H506.948L513.181 611.418H493.851V661.936Z" fill="#FFB8B8"/>
<path d="M532.207 674.097H491.044V658.194H516.898C520.958 658.194 524.852 659.807 527.723 662.678C530.594 665.549 532.207 669.442 532.207 673.503V674.097V674.097Z" fill="#2F2E41"/>
<path d="M546.416 335.71C544.674 341.381 550.848 347.555 552.841 353.129C554.834 358.703 557.516 364.067 558.593 369.9C559.33 373.911 576.038 462.5 575.235 467.894C570.092 466.353 564.553 466.861 559.776 469.312C556.439 463.45 554.433 456.924 553.902 450.199C553.701 446.212 553.739 442.216 554.015 438.233C554.534 426.963 549.648 415.677 549.486 404.399C549.537 400.49 549.228 396.584 548.563 392.732C548.028 390.083 548.077 385.124 547.501 382.483C546.586 378.286 550.523 376.35 550.305 372.047L549.106 348.552C548.855 344.436 544.723 339.388 546.416 335.71Z" fill="#2F2E41"/>
<path d="M487.177 434.29C482.966 440.859 474.102 442.28 467.901 446.986C458.426 454.219 482.598 616.716 490.578 645.583C511.634 642.425 512.371 642.436 514.792 641.372C517.213 640.309 519.403 557.772 524.52 540.758C534.095 549.782 564.231 627.339 570.59 644.531C595.857 638.214 570.59 644.531 603.227 636.108C602.953 630.15 554.998 435.985 553.25 420.688C531.31 425.057 509.054 429.931 487.177 434.29Z" fill="#2F2E41"/>
<path d="M484.338 312.271C481.737 319.976 485.278 349.953 485.537 356.694C485.91 362.813 485.91 368.95 485.537 375.069C484.638 385.667 481.486 396.337 483.601 406.756C484.986 413.651 487.449 420.06 488.025 427.076C488.413 431.937 488.292 436.88 489.831 441.49C495.503 439.059 545.784 430.704 549.478 425.845C546.951 413.635 549.397 401.028 547.72 388.673C546.748 381.551 544.342 374.697 543.207 367.607C541.806 358.857 542.397 349.783 539.845 341.284C538.43 336.981 536.633 332.813 534.473 328.831C532.276 324.302 529.521 320.582 528.578 320.583C526.188 320.713 484.491 311.584 484.338 312.271Z" fill="#6C63FF"/>
<path d="M474.713 495.717C474.713 495.717 483.431 478.322 483.868 468.372C484.022 464.799 493.809 450.58 498.217 447.356C508.669 439.699 516.374 388.381 512.841 375.928C506.732 354.401 496.443 334.333 485.999 314.547C485.688 313.809 485.184 313.169 484.541 312.692C482.418 311.371 480.117 313.972 478.667 316.006C473.749 322.901 465.647 326.587 458.225 330.662C450.804 334.738 443.212 340.166 440.968 348.325C439.461 353.802 440.636 359.611 441.778 365.161C442.921 370.711 446.915 375.118 449.937 379.793C453.44 384.952 462.54 407.833 462.471 410.548C462.649 427.336 462.819 444.18 460.786 460.854C459.643 470.276 458.639 489.211 458.639 489.211L474.713 495.717Z" fill="#2F2E41"/>
<path d="M553.886 477.73C537.836 441.198 538.735 399.627 528.535 361.061C525.505 349.613 521.454 338.108 522.183 326.287C522.312 324.173 522.758 321.799 524.524 320.616C526.096 319.563 528.235 319.846 529.961 320.616C531.686 321.385 533.161 322.641 534.822 323.5C537.504 324.869 540.623 325.258 543.199 326.806C547.024 329.107 548.976 333.482 550.686 337.598C554.34 346.388 557.978 355.422 558.269 364.95C558.885 383.455 550.678 401.239 554.955 419.234C555.878 422.782 556.982 426.281 558.261 429.718C562.55 442.13 566.067 454.796 568.794 467.643C569.272 469.839 554.558 479.27 553.886 477.73Z" fill="#2F2E41"/>
<path d="M502.933 469.086C503.148 467.714 503.059 466.312 502.673 464.979C502.287 463.645 501.614 462.412 500.7 461.367C499.786 460.321 498.654 459.489 497.383 458.929C496.113 458.368 494.735 458.093 493.347 458.123L470.713 435.529L458.543 452.216L483.977 468.506C484.182 470.835 485.233 473.008 486.932 474.613C488.632 476.218 490.861 477.144 493.198 477.216C495.534 477.287 497.816 476.499 499.61 475.001C501.404 473.502 502.587 471.398 502.933 469.086V469.086Z" fill="#FFB8B8"/>
<path d="M430.816 417.775C431.189 421.17 459.704 456.972 475.199 468.656C474.3 464.046 486.445 449.008 490.374 446.659C480.555 437.396 460.038 415.911 459.36 414.737C457.14 410.451 459.36 405.33 461.296 400.899C467.397 386.809 470.273 370.824 466.36 355.973C464.885 350.399 462.309 344.816 457.618 341.389C455.568 339.899 452.797 338.878 450.52 340.012C449.567 340.561 448.739 341.303 448.09 342.191C440.822 351.031 430.541 415.255 430.816 417.775Z" fill="#2F2E41"/>
<path d="M497.258 306.57C498.79 300.07 491.046 286.084 492.578 279.583C493.615 275.181 503.966 278.174 506.382 274.35C508.798 270.527 512.844 267.43 517.366 267.379C522.564 267.32 527.679 271.176 532.603 269.51C537.582 267.825 539.173 261.007 536.972 256.234C534.771 251.461 530.029 248.419 525.344 246.036C517.367 241.978 508.078 239.014 499.54 241.699C494.378 243.322 490.063 246.839 485.886 250.279C482.08 253.415 478.209 256.622 475.547 260.774C470.334 268.909 470.648 279.87 475.104 288.444C479.559 297.017 487.677 303.309 496.622 306.961" fill="#2F2E41"/>
<path d="M187.191 124.908V150H183.915V124.908H187.191ZM193.278 124.908H196.914L193.458 133.08H191.154L193.278 124.908ZM224.373 129.912C225.909 129.912 227.277 130.236 228.477 130.884C229.677 131.508 230.625 132.456 231.321 133.728C232.017 135 232.365 136.548 232.365 138.372V150H229.125V138.84C229.125 136.872 228.633 135.372 227.649 134.34C226.689 133.284 225.381 132.756 223.725 132.756C222.021 132.756 220.665 133.308 219.657 134.412C218.649 135.492 218.145 137.064 218.145 139.128V150H214.905V138.84C214.905 136.872 214.413 135.372 213.429 134.34C212.469 133.284 211.161 132.756 209.505 132.756C207.801 132.756 206.445 133.308 205.437 134.412C204.429 135.492 203.925 137.064 203.925 139.128V150H200.649V130.272H203.925V133.116C204.573 132.084 205.437 131.292 206.517 130.74C207.621 130.188 208.833 129.912 210.153 129.912C211.809 129.912 213.273 130.284 214.545 131.028C215.817 131.772 216.765 132.864 217.389 134.304C217.941 132.912 218.853 131.832 220.125 131.064C221.397 130.296 222.813 129.912 224.373 129.912ZM246.112 140.064C246.112 138.048 246.52 136.284 247.336 134.772C248.152 133.236 249.268 132.048 250.684 131.208C252.124 130.368 253.72 129.948 255.472 129.948C257.2 129.948 258.7 130.32 259.972 131.064C261.244 131.808 262.192 132.744 262.816 133.872V130.272H266.128V150H262.816V146.328C262.168 147.48 261.196 148.44 259.9 149.208C258.628 149.952 257.14 150.324 255.436 150.324C253.684 150.324 252.1 149.892 250.684 149.028C249.268 148.164 248.152 146.952 247.336 145.392C246.52 143.832 246.112 142.056 246.112 140.064ZM262.816 140.1C262.816 138.612 262.516 137.316 261.916 136.212C261.316 135.108 260.5 134.268 259.468 133.692C258.46 133.092 257.344 132.792 256.12 132.792C254.896 132.792 253.78 133.08 252.772 133.656C251.764 134.232 250.96 135.072 250.36 136.176C249.76 137.28 249.46 138.576 249.46 140.064C249.46 141.576 249.76 142.896 250.36 144.024C250.96 145.128 251.764 145.98 252.772 146.58C253.78 147.156 254.896 147.444 256.12 147.444C257.344 147.444 258.46 147.156 259.468 146.58C260.5 145.98 261.316 145.128 261.916 144.024C262.516 142.896 262.816 141.588 262.816 140.1ZM299.421 178.908L292.149 204H288.477L282.645 183.804L276.597 204L272.961 204.036L265.941 178.908H269.433L274.905 200.184L280.953 178.908H284.625L290.385 200.112L295.893 178.908H299.421ZM321.006 193.38C321.006 194.004 320.97 194.664 320.898 195.36H305.13C305.25 197.304 305.91 198.828 307.11 199.932C308.334 201.012 309.81 201.552 311.538 201.552C312.954 201.552 314.13 201.228 315.066 200.58C316.026 199.908 316.698 199.02 317.082 197.916H320.61C320.082 199.812 319.026 201.36 317.442 202.56C315.858 203.736 313.89 204.324 311.538 204.324C309.666 204.324 307.986 203.904 306.498 203.064C305.034 202.224 303.882 201.036 303.042 199.5C302.202 197.94 301.782 196.14 301.782 194.1C301.782 192.06 302.19 190.272 303.006 188.736C303.822 187.2 304.962 186.024 306.426 185.208C307.914 184.368 309.618 183.948 311.538 183.948C313.41 183.948 315.066 184.356 316.506 185.172C317.946 185.988 319.05 187.116 319.818 188.556C320.61 189.972 321.006 191.58 321.006 193.38ZM317.622 192.696C317.622 191.448 317.346 190.38 316.794 189.492C316.242 188.58 315.486 187.896 314.526 187.44C313.59 186.96 312.546 186.72 311.394 186.72C309.738 186.72 308.322 187.248 307.146 188.304C305.994 189.36 305.334 190.824 305.166 192.696H317.622ZM328.607 187.944C329.279 186.768 330.263 185.808 331.559 185.064C332.855 184.32 334.331 183.948 335.987 183.948C337.763 183.948 339.359 184.368 340.775 185.208C342.191 186.048 343.307 187.236 344.123 188.772C344.939 190.284 345.347 192.048 345.347 194.064C345.347 196.056 344.939 197.832 344.123 199.392C343.307 200.952 342.179 202.164 340.739 203.028C339.323 203.892 337.739 204.324 335.987 204.324C334.283 204.324 332.783 203.952 331.487 203.208C330.215 202.464 329.255 201.516 328.607 200.364V204H325.331V177.36H328.607V187.944ZM341.999 194.064C341.999 192.576 341.699 191.28 341.099 190.176C340.499 189.072 339.683 188.232 338.651 187.656C337.643 187.08 336.527 186.792 335.303 186.792C334.103 186.792 332.987 187.092 331.955 187.692C330.947 188.268 330.131 189.12 329.507 190.248C328.907 191.352 328.607 192.636 328.607 194.1C328.607 195.588 328.907 196.896 329.507 198.024C330.131 199.128 330.947 199.98 331.955 200.58C332.987 201.156 334.103 201.444 335.303 201.444C336.527 201.444 337.643 201.156 338.651 200.58C339.683 199.98 340.499 199.128 341.099 198.024C341.699 196.896 341.999 195.576 341.999 194.064ZM225.459 232.908C228.195 232.908 230.559 233.424 232.551 234.456C234.567 235.464 236.103 236.916 237.159 238.812C238.239 240.708 238.779 242.94 238.779 245.508C238.779 248.076 238.239 250.308 237.159 252.204C236.103 254.076 234.567 255.516 232.551 256.524C230.559 257.508 228.195 258 225.459 258H217.647V232.908H225.459ZM225.459 255.3C228.699 255.3 231.171 254.448 232.875 252.744C234.579 251.016 235.431 248.604 235.431 245.508C235.431 242.388 234.567 239.952 232.839 238.2C231.135 236.448 228.675 235.572 225.459 235.572H220.923V255.3H225.459ZM261.1 247.38C261.1 248.004 261.064 248.664 260.992 249.36H245.224C245.344 251.304 246.004 252.828 247.204 253.932C248.428 255.012 249.904 255.552 251.632 255.552C253.048 255.552 254.224 255.228 255.16 254.58C256.12 253.908 256.792 253.02 257.176 251.916H260.704C260.176 253.812 259.12 255.36 257.536 256.56C255.952 257.736 253.984 258.324 251.632 258.324C249.76 258.324 248.08 257.904 246.592 257.064C245.128 256.224 243.976 255.036 243.136 253.5C242.296 251.94 241.876 250.14 241.876 248.1C241.876 246.06 242.284 244.272 243.1 242.736C243.916 241.2 245.056 240.024 246.52 239.208C248.008 238.368 249.712 237.948 251.632 237.948C253.504 237.948 255.16 238.356 256.6 239.172C258.04 239.988 259.144 241.116 259.912 242.556C260.704 243.972 261.1 245.58 261.1 247.38ZM257.716 246.696C257.716 245.448 257.44 244.38 256.888 243.492C256.336 242.58 255.58 241.896 254.62 241.44C253.684 240.96 252.64 240.72 251.488 240.72C249.832 240.72 248.416 241.248 247.24 242.304C246.088 243.36 245.428 244.824 245.26 246.696H257.716ZM272.768 254.976L278.888 238.272H282.38L274.64 258H270.824L263.084 238.272H266.612L272.768 254.976ZM303.604 247.38C303.604 248.004 303.568 248.664 303.496 249.36H287.728C287.848 251.304 288.508 252.828 289.708 253.932C290.932 255.012 292.408 255.552 294.136 255.552C295.552 255.552 296.728 255.228 297.664 254.58C298.624 253.908 299.296 253.02 299.68 251.916H303.208C302.68 253.812 301.624 255.36 300.04 256.56C298.456 257.736 296.488 258.324 294.136 258.324C292.264 258.324 290.584 257.904 289.096 257.064C287.632 256.224 286.48 255.036 285.64 253.5C284.8 251.94 284.38 250.14 284.38 248.1C284.38 246.06 284.788 244.272 285.604 242.736C286.42 241.2 287.56 240.024 289.024 239.208C290.512 238.368 292.216 237.948 294.136 237.948C296.008 237.948 297.664 238.356 299.104 239.172C300.544 239.988 301.648 241.116 302.416 242.556C303.208 243.972 303.604 245.58 303.604 247.38ZM300.22 246.696C300.22 245.448 299.944 244.38 299.392 243.492C298.84 242.58 298.084 241.896 297.124 241.44C296.188 240.96 295.144 240.72 293.992 240.72C292.336 240.72 290.92 241.248 289.744 242.304C288.592 243.36 287.932 244.824 287.764 246.696H300.22ZM311.204 231.36V258H307.928V231.36H311.204ZM325.392 258.324C323.544 258.324 321.864 257.904 320.352 257.064C318.864 256.224 317.688 255.036 316.824 253.5C315.984 251.94 315.564 250.14 315.564 248.1C315.564 246.084 315.996 244.308 316.86 242.772C317.748 241.212 318.948 240.024 320.46 239.208C321.972 238.368 323.664 237.948 325.536 237.948C327.408 237.948 329.1 238.368 330.612 239.208C332.124 240.024 333.312 241.2 334.176 242.736C335.064 244.272 335.508 246.06 335.508 248.1C335.508 250.14 335.052 251.94 334.14 253.5C333.252 255.036 332.04 256.224 330.504 257.064C328.968 257.904 327.264 258.324 325.392 258.324ZM325.392 255.444C326.568 255.444 327.672 255.168 328.704 254.616C329.736 254.064 330.564 253.236 331.188 252.132C331.836 251.028 332.16 249.684 332.16 248.1C332.16 246.516 331.848 245.172 331.224 244.068C330.6 242.964 329.784 242.148 328.776 241.62C327.768 241.068 326.676 240.792 325.5 240.792C324.3 240.792 323.196 241.068 322.188 241.62C321.204 242.148 320.412 242.964 319.812 244.068C319.212 245.172 318.912 246.516 318.912 248.1C318.912 249.708 319.2 251.064 319.776 252.168C320.376 253.272 321.168 254.1 322.152 254.652C323.136 255.18 324.216 255.444 325.392 255.444ZM343.091 241.908C343.739 240.78 344.699 239.844 345.971 239.1C347.267 238.332 348.767 237.948 350.471 237.948C352.223 237.948 353.807 238.368 355.223 239.208C356.663 240.048 357.791 241.236 358.607 242.772C359.423 244.284 359.831 246.048 359.831 248.064C359.831 250.056 359.423 251.832 358.607 253.392C357.791 254.952 356.663 256.164 355.223 257.028C353.807 257.892 352.223 258.324 350.471 258.324C348.791 258.324 347.303 257.952 346.007 257.208C344.735 256.44 343.763 255.492 343.091 254.364V267.36H339.815V238.272H343.091V241.908ZM356.483 248.064C356.483 246.576 356.183 245.28 355.583 244.176C354.983 243.072 354.167 242.232 353.135 241.656C352.127 241.08 351.011 240.792 349.787 240.792C348.587 240.792 347.471 241.092 346.439 241.692C345.431 242.268 344.615 243.12 343.991 244.248C343.391 245.352 343.091 246.636 343.091 248.1C343.091 249.588 343.391 250.896 343.991 252.024C344.615 253.128 345.431 253.98 346.439 254.58C347.471 255.156 348.587 255.444 349.787 255.444C351.011 255.444 352.127 255.156 353.135 254.58C354.167 253.98 354.983 253.128 355.583 252.024C356.183 250.896 356.483 249.576 356.483 248.064ZM382.143 247.38C382.143 248.004 382.107 248.664 382.035 249.36H366.267C366.387 251.304 367.047 252.828 368.247 253.932C369.471 255.012 370.947 255.552 372.675 255.552C374.091 255.552 375.267 255.228 376.203 254.58C377.163 253.908 377.835 253.02 378.219 251.916H381.747C381.219 253.812 380.163 255.36 378.579 256.56C376.995 257.736 375.027 258.324 372.675 258.324C370.803 258.324 369.123 257.904 367.635 257.064C366.171 256.224 365.019 255.036 364.179 253.5C363.339 251.94 362.919 250.14 362.919 248.1C362.919 246.06 363.327 244.272 364.143 242.736C364.959 241.2 366.099 240.024 367.563 239.208C369.051 238.368 370.755 237.948 372.675 237.948C374.547 237.948 376.203 238.356 377.643 239.172C379.083 239.988 380.187 241.116 380.955 242.556C381.747 243.972 382.143 245.58 382.143 247.38ZM378.759 246.696C378.759 245.448 378.483 244.38 377.931 243.492C377.379 242.58 376.623 241.896 375.663 241.44C374.727 240.96 373.683 240.72 372.531 240.72C370.875 240.72 369.459 241.248 368.283 242.304C367.131 243.36 366.471 244.824 366.303 246.696H378.759ZM389.743 241.476C390.319 240.348 391.135 239.472 392.191 238.848C393.271 238.224 394.579 237.912 396.115 237.912V241.296H395.251C391.579 241.296 389.743 243.288 389.743 247.272V258H386.467V238.272H389.743V241.476Z" fill="white"/>
<path d="M280.038 137.436C280.038 134.988 280.59 132.792 281.694 130.848C282.798 128.88 284.298 127.344 286.194 126.24C288.114 125.136 290.238 124.584 292.566 124.584C295.302 124.584 297.69 125.244 299.73 126.564C301.77 127.884 303.258 129.756 304.194 132.18H300.27C299.574 130.668 298.566 129.504 297.246 128.688C295.95 127.872 294.39 127.464 292.566 127.464C290.814 127.464 289.242 127.872 287.85 128.688C286.458 129.504 285.366 130.668 284.574 132.18C283.782 133.668 283.386 135.42 283.386 137.436C283.386 139.428 283.782 141.18 284.574 142.692C285.366 144.18 286.458 145.332 287.85 146.148C289.242 146.964 290.814 147.372 292.566 147.372C294.39 147.372 295.95 146.976 297.246 146.184C298.566 145.368 299.574 144.204 300.27 142.692H304.194C303.258 145.092 301.77 146.952 299.73 148.272C297.69 149.568 295.302 150.216 292.566 150.216C290.238 150.216 288.114 149.676 286.194 148.596C284.298 147.492 282.798 145.968 281.694 144.024C280.59 142.08 280.038 139.884 280.038 137.436ZM312.347 133.476C312.923 132.348 313.739 131.472 314.795 130.848C315.875 130.224 317.183 129.912 318.719 129.912V133.296H317.855C314.183 133.296 312.347 135.288 312.347 139.272V150H309.071V130.272H312.347V133.476ZM340.501 139.38C340.501 140.004 340.465 140.664 340.393 141.36H324.625C324.745 143.304 325.405 144.828 326.605 145.932C327.829 147.012 329.305 147.552 331.033 147.552C332.449 147.552 333.625 147.228 334.561 146.58C335.521 145.908 336.193 145.02 336.577 143.916H340.105C339.577 145.812 338.521 147.36 336.937 148.56C335.353 149.736 333.385 150.324 331.033 150.324C329.161 150.324 327.481 149.904 325.993 149.064C324.529 148.224 323.377 147.036 322.537 145.5C321.697 143.94 321.277 142.14 321.277 140.1C321.277 138.06 321.685 136.272 322.501 134.736C323.317 133.2 324.457 132.024 325.921 131.208C327.409 130.368 329.113 129.948 331.033 129.948C332.905 129.948 334.561 130.356 336.001 131.172C337.441 131.988 338.545 133.116 339.313 134.556C340.105 135.972 340.501 137.58 340.501 139.38ZM337.117 138.696C337.117 137.448 336.841 136.38 336.289 135.492C335.737 134.58 334.981 133.896 334.021 133.44C333.085 132.96 332.041 132.72 330.889 132.72C329.233 132.72 327.817 133.248 326.641 134.304C325.489 135.36 324.829 136.824 324.661 138.696H337.117ZM343.601 140.064C343.601 138.048 344.009 136.284 344.825 134.772C345.641 133.236 346.757 132.048 348.173 131.208C349.613 130.368 351.209 129.948 352.961 129.948C354.689 129.948 356.189 130.32 357.461 131.064C358.733 131.808 359.681 132.744 360.305 133.872V130.272H363.617V150H360.305V146.328C359.657 147.48 358.685 148.44 357.389 149.208C356.117 149.952 354.629 150.324 352.925 150.324C351.173 150.324 349.589 149.892 348.173 149.028C346.757 148.164 345.641 146.952 344.825 145.392C344.009 143.832 343.601 142.056 343.601 140.064ZM360.305 140.1C360.305 138.612 360.005 137.316 359.405 136.212C358.805 135.108 357.989 134.268 356.957 133.692C355.949 133.092 354.833 132.792 353.609 132.792C352.385 132.792 351.269 133.08 350.261 133.656C349.253 134.232 348.449 135.072 347.849 136.176C347.249 137.28 346.949 138.576 346.949 140.064C346.949 141.576 347.249 142.896 347.849 144.024C348.449 145.128 349.253 145.98 350.261 146.58C351.269 147.156 352.385 147.444 353.609 147.444C354.833 147.444 355.949 147.156 356.957 146.58C357.989 145.98 358.805 145.128 359.405 144.024C360.005 142.896 360.305 141.588 360.305 140.1ZM373.149 132.972V144.6C373.149 145.56 373.353 146.244 373.761 146.652C374.169 147.036 374.877 147.228 375.885 147.228H378.297V150H375.345C373.521 150 372.153 149.58 371.241 148.74C370.329 147.9 369.873 146.52 369.873 144.6V132.972H367.317V130.272H369.873V125.304H373.149V130.272H378.297V132.972H373.149ZM383.958 127.068C383.334 127.068 382.806 126.852 382.374 126.42C381.942 125.988 381.726 125.46 381.726 124.836C381.726 124.212 381.942 123.684 382.374 123.252C382.806 122.82 383.334 122.604 383.958 122.604C384.558 122.604 385.062 122.82 385.47 123.252C385.902 123.684 386.118 124.212 386.118 124.836C386.118 125.46 385.902 125.988 385.47 126.42C385.062 126.852 384.558 127.068 383.958 127.068ZM385.542 130.272V150H382.266V130.272H385.542ZM398.47 146.976L404.59 130.272H408.082L400.342 150H396.526L388.786 130.272H392.314L398.47 146.976ZM429.305 139.38C429.305 140.004 429.269 140.664 429.197 141.36H413.429C413.549 143.304 414.209 144.828 415.409 145.932C416.633 147.012 418.109 147.552 419.837 147.552C421.253 147.552 422.429 147.228 423.365 146.58C424.325 145.908 424.997 145.02 425.381 143.916H428.909C428.381 145.812 427.325 147.36 425.741 148.56C424.157 149.736 422.189 150.324 419.837 150.324C417.965 150.324 416.285 149.904 414.797 149.064C413.333 148.224 412.181 147.036 411.341 145.5C410.501 143.94 410.081 142.14 410.081 140.1C410.081 138.06 410.489 136.272 411.305 134.736C412.121 133.2 413.261 132.024 414.725 131.208C416.213 130.368 417.917 129.948 419.837 129.948C421.709 129.948 423.365 130.356 424.805 131.172C426.245 131.988 427.349 133.116 428.117 134.556C428.909 135.972 429.305 137.58 429.305 139.38ZM425.921 138.696C425.921 137.448 425.645 136.38 425.093 135.492C424.541 134.58 423.785 133.896 422.825 133.44C421.889 132.96 420.845 132.72 419.693 132.72C418.037 132.72 416.621 133.248 415.445 134.304C414.293 135.36 413.633 136.824 413.465 138.696H425.921Z" fill="url(#paint2_linear)"/>
<path d="M365.647 589H249.353C241.038 589 233.063 586.05 227.183 580.799C221.303 575.548 218 568.426 218 561C218 553.574 221.303 546.452 227.183 541.201C233.063 535.95 241.038 533 249.353 533H365.647C373.962 533 381.937 535.95 387.817 541.201C393.697 546.452 397 553.574 397 561C397 568.426 393.697 575.548 387.817 580.799C381.937 586.05 373.962 589 365.647 589V589Z" stroke="black"/>
<g filter="url(#filter1_d)">
<path d="M262.278 568.28H254.418L253.158 572H247.788L255.408 550.94H261.348L268.968 572H263.538L262.278 568.28ZM260.958 564.32L258.348 556.61L255.768 564.32H260.958ZM283.017 557.63C283.497 556.85 284.187 556.22 285.087 555.74C285.987 555.26 287.017 555.02 288.177 555.02C289.557 555.02 290.807 555.37 291.927 556.07C293.047 556.77 293.927 557.77 294.567 559.07C295.227 560.37 295.557 561.88 295.557 563.6C295.557 565.32 295.227 566.84 294.567 568.16C293.927 569.46 293.047 570.47 291.927 571.19C290.807 571.89 289.557 572.24 288.177 572.24C286.997 572.24 285.967 572.01 285.087 571.55C284.207 571.07 283.517 570.44 283.017 569.66V572H277.887V549.8H283.017V557.63ZM290.337 563.6C290.337 562.32 289.977 561.32 289.257 560.6C288.557 559.86 287.687 559.49 286.647 559.49C285.627 559.49 284.757 559.86 284.037 560.6C283.337 561.34 282.987 562.35 282.987 563.63C282.987 564.91 283.337 565.92 284.037 566.66C284.757 567.4 285.627 567.77 286.647 567.77C287.667 567.77 288.537 567.4 289.257 566.66C289.977 565.9 290.337 564.88 290.337 563.6ZM312.468 572.24C310.828 572.24 309.348 571.89 308.028 571.19C306.728 570.49 305.698 569.49 304.938 568.19C304.198 566.89 303.828 565.37 303.828 563.63C303.828 561.91 304.208 560.4 304.968 559.1C305.728 557.78 306.768 556.77 308.088 556.07C309.408 555.37 310.888 555.02 312.528 555.02C314.168 555.02 315.648 555.37 316.968 556.07C318.288 556.77 319.328 557.78 320.088 559.1C320.848 560.4 321.228 561.91 321.228 563.63C321.228 565.35 320.838 566.87 320.058 568.19C319.298 569.49 318.248 570.49 316.908 571.19C315.588 571.89 314.108 572.24 312.468 572.24ZM312.468 567.8C313.448 567.8 314.278 567.44 314.958 566.72C315.658 566 316.008 564.97 316.008 563.63C316.008 562.29 315.668 561.26 314.988 560.54C314.328 559.82 313.508 559.46 312.528 559.46C311.528 559.46 310.698 559.82 310.038 560.54C309.378 561.24 309.048 562.27 309.048 563.63C309.048 564.97 309.368 566 310.008 566.72C310.668 567.44 311.488 567.8 312.468 567.8ZM347.08 555.26V572H341.95V569.72C341.43 570.46 340.72 571.06 339.82 571.52C338.94 571.96 337.96 572.18 336.88 572.18C335.6 572.18 334.47 571.9 333.49 571.34C332.51 570.76 331.75 569.93 331.21 568.85C330.67 567.77 330.4 566.5 330.4 565.04V555.26H335.5V564.35C335.5 565.47 335.79 566.34 336.37 566.96C336.95 567.58 337.73 567.89 338.71 567.89C339.71 567.89 340.5 567.58 341.08 566.96C341.66 566.34 341.95 565.47 341.95 564.35V555.26H347.08ZM366.695 567.65V572H364.085C362.225 572 360.775 571.55 359.735 570.65C358.695 569.73 358.175 568.24 358.175 566.18V559.52H356.135V555.26H358.175V551.18H363.305V555.26H366.665V559.52H363.305V566.24C363.305 566.74 363.425 567.1 363.665 567.32C363.905 567.54 364.305 567.65 364.865 567.65H366.695Z" fill="#FFF7F7"/>
</g>
</g>
<defs>
<filter id="filter0_dd" x="133.534" y="0.0448303" width="500.52" height="682.27" filterUnits="userSpaceOnUse" color-interpolation-filters="sRGB">
<feFlood flood-opacity="0" result="BackgroundImageFix"/>
<feColorMatrix in="SourceAlpha" type="matrix" values="0 0 0 0 0 0 0 0 0 0 0 0 0 0 0 0 0 0 127 0"/>
<feOffset dy="4"/>
<feGaussianBlur stdDeviation="2"/>
<feColorMatrix type="matrix" values="0 0 0 0 0 0 0 0 0 0 0 0 0 0 0 0 0 0 0.25 0"/>
<feBlend mode="normal" in2="BackgroundImageFix" result="effect1_dropShadow"/>
<feColorMatrix in="SourceAlpha" type="matrix" values="0 0 0 0 0 0 0 0 0 0 0 0 0 0 0 0 0 0 127 0"/>
<feOffset dy="4"/>
<feGaussianBlur stdDeviation="2"/>
<feColorMatrix type="matrix" values="0 0 0 0 0 0 0 0 0 0 0 0 0 0 0 0 0 0 0.25 0"/>
<feBlend mode="normal" in2="effect1_dropShadow" result="effect2_dropShadow"/>
<feBlend mode="normal" in="SourceGraphic" in2="effect2_dropShadow" result="shape"/>
</filter>
<filter id="filter1_d" x="243.788" y="549.8" width="126.907" height="30.44" filterUnits="userSpaceOnUse" color-interpolation-filters="sRGB">
<feFlood flood-opacity="0" result="BackgroundImageFix"/>
<feColorMatrix in="SourceAlpha" type="matrix" values="0 0 0 0 0 0 0 0 0 0 0 0 0 0 0 0 0 0 127 0"/>
<feOffset dy="4"/>
<feGaussianBlur stdDeviation="2"/>
<feColorMatrix type="matrix" values="0 0 0 0 0 0 0 0 0 0 0 0 0 0 0 0 0 0 0.25 0"/>
<feBlend mode="normal" in2="BackgroundImageFix" result="effect1_dropShadow"/>
<feBlend mode="normal" in="SourceGraphic" in2="effect1_dropShadow" result="shape"/>
</filter>
<linearGradient id="paint0_linear" x1="401.626" y1="39.8951" x2="182.626" y2="611.895" gradientUnits="userSpaceOnUse">
<stop stop-color="#504B55"/>
<stop offset="1" stop-color="#9D44F7"/>
<stop offset="1" stop-color="#9D44F7"/>
</linearGradient>
<linearGradient id="paint1_linear" x1="420" y1="72.5" x2="453" y2="262.5" gradientUnits="userSpaceOnUse">
<stop stop-color="#0D2052"/>
<stop offset="1" stop-color="#AD00FE" stop-opacity="0.46"/>
</linearGradient>
<linearGradient id="paint2_linear" x1="306" y1="110" x2="306" y2="267" gradientUnits="userSpaceOnUse">
<stop stop-color="#F602FB"/>
<stop offset="1" stop-color="#2714FF"/>
</linearGradient>
</defs>
</svg>
