<svg width="936" height="105" viewBox="0 0 936 105" fill="none" xmlns="http://www.w3.org/2000/svg">
<rect width="936" height="105" fill="#E5E5E5"/>
<path id="Line 1" d="M1.74414 103.45C1.51667 103.607 1.45917 103.918 1.61573 104.145C1.77228 104.373 2.0836 104.43 2.31108 104.274L1.74414 103.45ZM934.926 51.3737C935.186 51.4671 935.472 51.3321 935.566 51.0723C935.659 50.8124 935.524 50.526 935.264 50.4326L934.926 51.3737ZM466.005 51.959L466.103 52.4496L466.115 52.4468L466.005 51.959ZM419.837 61.1539L419.74 60.6636L419.728 60.6659L419.716 60.6688L419.837 61.1539ZM635.711 13.0534L635.644 12.5579L635.62 12.561L635.597 12.5665L635.711 13.0534ZM724.909 2.47413L724.918 1.97421L724.888 1.97369L724.859 1.97668L724.909 2.47413ZM62.6997 65.916L62.4962 65.4593L62.4735 65.4694L62.452 65.4817L62.6997 65.916ZM544.325 34.3245L544.435 34.8123L544.438 34.8115L544.325 34.3245ZM378.651 71.436L378.727 71.9303L378.75 71.9268L378.773 71.9211L378.651 71.436ZM30.3727 84.3541L30.125 83.9198L30.1066 83.9303L30.0892 83.9422L30.3727 84.3541ZM682.828 6.73972L682.778 6.24227L682.77 6.24308L682.762 6.24415L682.828 6.73972ZM839.679 16.617L839.849 16.1465L839.816 16.1349L839.783 16.1278L839.679 16.617ZM344.951 76.5683L344.876 76.074L344.951 76.5683ZM123.368 42.0558L123.252 41.5694L123.368 42.0558ZM756.584 3.21773L756.61 2.7184L756.584 3.21773ZM781.024 5.43507L780.96 5.93092L781.024 5.43507ZM256.004 64.7797L255.802 65.2372L256.004 64.7797ZM419.935 61.6443L466.103 52.4494L465.907 51.4687L419.74 60.6636L419.935 61.6443ZM724.9 2.97406L734.533 3.14236L734.551 2.14251L724.918 1.97421L724.9 2.97406ZM62.9032 66.3727L93.8883 52.5669L93.4813 51.6535L62.4962 65.4593L62.9032 66.3727ZM123.484 42.5422L127.153 41.6674L126.921 40.6947L123.252 41.5694L123.484 42.5422ZM232.018 54.7554L255.802 65.2372L256.206 64.3221L232.422 53.8403L232.018 54.7554ZM466.115 52.4468L544.435 34.8123L544.215 33.8367L465.895 51.4712L466.115 52.4468ZM544.438 34.8115L635.824 13.5404L635.597 12.5665L544.212 33.8375L544.438 34.8115ZM345.026 77.0626L378.727 71.9303L378.576 70.9417L344.876 76.074L345.026 77.0626ZM378.773 71.9211L419.958 61.639L419.716 60.6688L378.53 70.9509L378.773 71.9211ZM193.917 42.2119L200.851 43.985L201.099 43.0161L194.165 41.2431L193.917 42.2119ZM2.31108 104.274L30.6562 84.766L30.0892 83.9422L1.74414 103.45L2.31108 104.274ZM30.6204 84.7884L62.9474 66.3503L62.452 65.4817L30.125 83.9198L30.6204 84.7884ZM635.777 13.549L682.895 7.23529L682.762 6.24415L635.644 12.5579L635.777 13.549ZM682.879 7.23717L724.959 2.97158L724.859 1.97668L682.778 6.24227L682.879 7.23717ZM839.51 17.0876L934.926 51.3737L935.264 50.4326L839.849 16.1465L839.51 17.0876ZM802.707 9.32517L839.576 17.1062L839.783 16.1278L802.913 8.34672L802.707 9.32517ZM161.865 37.894C172.68 38.083 183.437 39.5321 193.917 42.2119L194.165 41.2431C183.61 38.544 172.775 37.0845 161.882 36.8942L161.865 37.894ZM344.876 76.074C335.965 77.431 326.935 78.0336 317.922 77.8762L317.905 78.876C326.973 79.0345 336.06 78.4281 345.026 77.0626L344.876 76.074ZM232.422 53.8403C222.296 49.3778 211.819 45.7575 201.099 43.0161L200.851 43.985C211.518 46.7127 221.943 50.3151 232.018 54.7554L232.422 53.8403ZM93.8883 52.5669C103.423 48.3187 113.33 44.9628 123.484 42.5422L123.252 41.5694C113.038 44.0044 103.072 47.3801 93.4813 51.6535L93.8883 52.5669ZM277.767 73.0702C290.838 76.6881 304.345 78.6391 317.905 78.876L317.922 77.8762C304.446 77.6408 291.023 75.7018 278.034 72.1065L277.767 73.0702ZM127.153 41.6674C138.519 38.9577 150.182 37.6899 161.865 37.894L161.882 36.8942C150.115 36.6886 138.369 37.9655 126.921 40.6947L127.153 41.6674ZM734.533 3.14236C745.564 3.33507 751.067 3.4313 756.558 3.71705L756.61 2.7184C751.098 2.43155 745.575 2.33511 734.551 2.14251L734.533 3.14236ZM802.891 8.34261C792.012 6.54811 786.562 5.64892 781.089 4.93922L780.96 5.93092C786.412 6.6379 791.843 7.53373 802.728 9.32928L802.891 8.34261ZM756.558 3.71705C764.717 4.14174 772.857 4.88024 780.96 5.93092L781.089 4.93922C772.96 3.88524 764.795 3.14442 756.61 2.7184L756.558 3.71705ZM255.802 65.2372C262.925 68.3761 270.266 70.994 277.767 73.0702L278.034 72.1065C270.579 70.0431 263.284 67.4415 256.206 64.3221L255.802 65.2372Z" fill="black"/>
</svg>
